<?xml version="1.0" standalone="no"?>
<!DOCTYPE svg PUBLIC "-//W3C//DTD SVG 20010904//EN"
 "http://www.w3.org/TR/2001/REC-SVG-20010904/DTD/svg10.dtd">
<svg version="1.0" xmlns="http://www.w3.org/2000/svg"
 width="322.000000pt" height="60.000000pt" viewBox="0 0 322.000000 60.000000"
 preserveAspectRatio="xMidYMid meet">

<g transform="translate(0.000000,60.000000) scale(0.100000,-0.100000)"
fill="#000000" stroke="none">
<path d="M190 305 l0 -175 120 0 120 0 0 30 0 30 -80 0 -80 0 0 45 0 45 75 0
75 0 0 30 0 30 -75 0 -75 0 0 40 0 40 80 0 80 0 0 30 0 30 -120 0 -120 0 0
-175z"/>
<path d="M1490 450 c0 -30 1 -30 55 -30 l55 0 0 -145 0 -145 35 0 35 0 0 145
0 145 55 0 c54 0 55 0 55 30 l0 30 -145 0 -145 0 0 -30z"/>
<path d="M2740 425 l0 -56 -30 16 c-55 29 -118 9 -140 -44 -28 -68 -7 -176 39
-201 29 -15 83 -12 109 6 20 14 22 14 22 0 0 -12 10 -16 35 -16 l35 0 0 175 0
175 -35 0 -35 0 0 -55z m-34 -93 c34 -22 41 -94 13 -129 -15 -17 -53 -17 -68
0 -36 44 -13 137 34 137 6 0 15 -4 21 -8z"/>
<path d="M1350 430 c0 -20 -5 -30 -15 -30 -10 0 -15 -10 -15 -30 0 -19 5 -30
14 -30 11 0 15 -20 17 -84 5 -104 20 -126 86 -126 41 0 43 1 43 30 0 25 -4 30
-25 30 -24 0 -25 2 -25 75 0 73 1 75 25 75 21 0 25 5 25 30 0 25 -4 30 -25 30
-21 0 -25 5 -25 30 0 28 -2 30 -40 30 -38 0 -40 -2 -40 -30z"/>
<path d="M460 393 c0 -5 21 -65 47 -135 l46 -128 43 0 c41 0 43 1 60 48 10 26
30 81 46 122 37 98 36 102 -9 98 l-37 -3 -30 -93 -29 -94 -30 96 -31 96 -38 0
c-21 0 -38 -3 -38 -7z"/>
<path d="M808 383 c-44 -27 -61 -71 -56 -138 4 -50 10 -63 37 -87 27 -24 40
-28 90 -28 52 0 63 4 92 31 26 25 30 32 18 40 -21 13 -57 11 -84 -7 -27 -18
-57 -7 -75 26 -10 19 -7 20 80 20 l90 0 0 31 c0 49 -29 100 -66 115 -44 19
-93 17 -126 -3z m100 -55 c25 -25 13 -38 -33 -38 -30 0 -45 4 -45 13 0 33 53
50 78 25z"/>
<path d="M1050 265 l0 -135 35 0 35 0 0 81 c0 44 4 88 10 98 13 25 37 33 61
21 17 -9 19 -22 19 -105 l0 -95 41 0 41 0 -4 111 c-3 107 -4 112 -31 135 -32
28 -82 32 -114 9 -19 -13 -22 -13 -27 0 -3 9 -18 15 -36 15 l-30 0 0 -135z"/>
<path d="M1800 265 l0 -135 35 0 35 0 0 84 c0 95 11 116 61 116 27 0 29 3 29
35 0 31 -3 35 -27 35 -14 0 -35 -7 -45 -17 -17 -15 -18 -15 -18 0 0 13 -9 17
-35 17 l-35 0 0 -135z"/>
<path d="M2045 390 c-66 -27 -95 -128 -58 -200 23 -44 54 -60 119 -60 44 0 57
5 85 31 26 25 30 32 18 40 -20 12 -67 11 -71 -2 -10 -29 -88 -4 -88 27 0 11
19 14 85 14 l85 0 0 35 c0 92 -89 151 -175 115z m88 -68 c22 -24 13 -32 -40
-32 -44 0 -55 14 -31 38 18 18 53 15 71 -6z"/>
<path d="M2270 265 l0 -135 35 0 35 0 0 81 c0 44 4 88 10 98 13 25 37 33 61
21 17 -9 19 -22 19 -105 l0 -95 41 0 41 0 -4 111 c-3 107 -4 112 -31 135 -32
28 -82 32 -114 9 -19 -13 -22 -13 -27 0 -3 9 -18 15 -36 15 l-30 0 0 -135z"/>
<path d="M2870 370 c0 -29 1 -29 61 -32 l61 -3 -61 -76 c-40 -50 -61 -86 -61
-103 l0 -26 110 0 110 0 0 30 c0 29 -1 29 -61 32 l-61 3 56 72 c40 52 56 80
56 102 l0 31 -105 0 -105 0 0 -30z"/>
</g>
</svg>
